<?xml version="1.0" standalone="no"?>
<!DOCTYPE svg PUBLIC "-//W3C//DTD SVG 20010904//EN"
 "http://www.w3.org/TR/2001/REC-SVG-20010904/DTD/svg10.dtd">
<svg version="1.0" xmlns="http://www.w3.org/2000/svg"
 width="900.000000pt" height="354.000000pt" viewBox="0 0 900.000000 354.000000"
 preserveAspectRatio="xMidYMid meet">
<metadata>
Created by potrace 1.10, written by Peter Selinger 2001-2011
</metadata>
<g transform="translate(0.000000,354.000000) scale(0.100000,-0.100000)"
fill="#000000" stroke="none">
<path d="M3297 3033 c-4 -3 -7 -30 -7 -58 0 -28 -3 -54 -6 -57 -3 -4 -17 0
-32 8 -45 23 -80 18 -113 -18 -24 -27 -29 -41 -29 -86 0 -60 18 -96 63 -118
30 -16 77 -12 77 6 0 16 32 11 45 -7 11 -15 15 -15 29 -4 23 20 24 302 0 325
-18 18 -18 18 -27 9z m-22 -166 c38 -71 -10 -154 -74 -128 -48 21 -64 77 -36
131 13 25 22 30 54 30 33 0 40 -5 56 -33z"/>
<path d="M2033 3020 c-24 -10 -53 -58 -53 -87 1 -39 45 -69 144 -99 16 -5 35
-19 43 -31 14 -20 13 -24 -11 -48 -34 -34 -85 -34 -117 0 -37 38 -82 32 -54
-8 42 -60 125 -74 187 -32 40 27 55 66 40 106 -10 26 -29 38 -107 65 -63 22
-75 31 -75 58 0 32 19 46 65 46 29 0 48 -7 68 -26 27 -25 47 -25 47 0 0 7 -11
23 -25 36 -28 26 -112 37 -152 20z"/>
<path d="M4365 3021 c-95 -41 -102 -254 -10 -311 88 -54 189 20 170 124 -10
50 -36 70 -95 70 -28 0 -56 -6 -62 -12 -20 -20 -28 -14 -28 21 0 63 76 100
126 62 22 -17 54 -20 54 -5 0 6 -9 19 -21 31 -22 22 -101 34 -134 20z m104
-177 c12 -15 21 -32 21 -40 0 -21 -51 -74 -71 -74 -32 0 -67 29 -74 60 -16 71
79 111 124 54z"/>
<path d="M4761 3018 c-13 -7 -33 -25 -44 -40 -17 -22 -19 -33 -11 -55 11 -34
64 -70 113 -79 41 -7 81 -39 81 -65 0 -23 -42 -49 -79 -49 -17 0 -42 11 -59
25 -52 43 -89 23 -39 -22 50 -46 116 -57 165 -26 41 25 52 43 52 83 0 47 -26
70 -105 95 -59 18 -85 37 -85 61 0 48 99 61 139 19 27 -29 37 -31 45 -10 3 8
-5 27 -18 41 -18 22 -33 28 -77 31 -32 2 -64 -1 -78 -9z"/>
<path d="M6367 3023 c-4 -3 -7 -78 -7 -165 0 -145 1 -158 18 -158 10 0 23 5
30 12 9 9 20 7 47 -8 34 -18 36 -18 69 0 62 33 81 133 37 195 -27 38 -63 48
-108 32 -41 -15 -46 -11 -45 31 2 57 -17 85 -41 61z m159 -160 c20 -47 11 -96
-21 -117 -32 -21 -47 -20 -73 4 -16 15 -22 32 -22 66 0 62 16 84 63 84 34 0
40 -4 53 -37z"/>
<path d="M4104 2984 c-43 -41 -33 -59 15 -25 39 28 41 20 41 -134 0 -125 7
-149 36 -124 12 10 14 39 12 163 l-3 151 -31 3 c-25 2 -40 -5 -70 -34z"/>
<path d="M2545 2995 c-3 -11 -13 -33 -21 -49 -13 -25 -13 -31 1 -46 11 -12 15
-38 15 -93 0 -70 2 -77 26 -96 50 -39 80 -19 39 25 -21 23 -25 36 -25 91 0 59
2 64 26 73 l25 10 -21 28 c-11 15 -29 38 -40 52 -18 24 -19 24 -25 5z"/>
<path d="M5547 2993 c-4 -3 -7 -16 -7 -28 0 -13 -7 -28 -16 -36 -14 -11 -14
-14 -1 -23 9 -7 16 -37 19 -89 4 -63 9 -82 28 -102 41 -44 77 -24 41 21 -16
21 -21 41 -21 89 0 53 3 65 23 79 19 14 20 17 7 28 -8 7 -21 25 -27 41 -12 26
-32 35 -46 20z"/>
<path d="M3443 2934 c-22 -9 -33 -21 -33 -34 0 -21 15 -27 25 -10 3 6 26 10
50 10 35 0 45 -4 50 -20 9 -28 -2 -40 -36 -40 -42 0 -95 -24 -109 -50 -14 -27
-5 -54 27 -80 31 -24 56 -25 79 -3 15 16 18 16 46 0 16 -9 34 -15 39 -11 5 3
9 44 9 91 0 98 -15 134 -64 151 -39 14 -42 14 -83 -4z m85 -152 c5 -36 -30
-65 -63 -52 -34 13 -41 36 -19 61 26 29 78 23 82 -9z"/>
<path d="M5064 2936 c-43 -15 -59 -34 -71 -84 -9 -33 -8 -53 1 -80 14 -41 66
-82 103 -82 29 0 83 30 83 45 0 23 -14 24 -47 4 l-33 -21 -36 22 c-25 16 -34
28 -32 44 3 19 10 21 83 24 44 2 84 7 88 11 8 8 -26 101 -36 101 -3 0 -20 6
-38 14 -26 10 -41 11 -65 2z m67 -44 c36 -30 19 -52 -39 -52 -27 0 -52 3 -55
6 -10 11 13 44 36 54 31 12 32 12 58 -8z"/>
<path d="M5755 2936 c-53 -23 -68 -50 -69 -117 -1 -58 1 -62 36 -95 44 -39 78
-43 126 -14 57 35 32 56 -30 24 -29 -15 -32 -15 -57 4 -15 11 -26 29 -26 43 0
23 3 24 83 27 77 3 82 4 82 25 0 35 -38 87 -75 103 -40 16 -33 16 -70 0z m83
-54 c20 -26 9 -37 -43 -40 -56 -4 -72 7 -54 37 22 34 71 36 97 3z"/>
<path d="M6691 2932 c-38 -19 -71 -72 -71 -114 0 -64 59 -128 120 -128 22 0
90 38 90 50 0 18 -22 21 -45 6 -33 -22 -71 -20 -95 4 -43 43 -22 60 75 60 68
0 79 9 67 52 -11 38 -35 64 -71 76 -19 7 -34 12 -35 12 -1 0 -16 -8 -35 -18z
m87 -44 c6 -6 12 -19 12 -30 0 -17 -6 -19 -52 -16 -46 3 -53 6 -56 26 -6 37
57 50 96 20z"/>
<path d="M2312 2930 c-23 -10 -39 -36 -28 -47 3 -4 17 -1 30 7 33 17 74 16 93
-3 25 -24 9 -47 -32 -47 -43 0 -90 -23 -105 -50 -31 -57 59 -130 104 -85 19
20 36 19 52 -2 12 -17 14 -17 30 -1 16 16 17 27 7 110 -9 75 -15 95 -33 110
-24 19 -80 23 -118 8z m92 -126 c22 -9 20 -30 -6 -54 -26 -24 -55 -26 -80 -3
-18 16 -18 17 4 40 21 23 51 29 82 17z"/>
<path d="M2697 2933 c-4 -3 -7 -46 -7 -95 0 -86 1 -91 29 -119 32 -31 78 -39
87 -14 7 17 40 20 49 5 3 -5 15 -10 26 -10 19 0 19 6 17 113 -3 104 -4 112
-23 112 -18 0 -21 -8 -25 -82 -5 -66 -10 -86 -25 -98 -28 -21 -51 -18 -75 8
-19 20 -21 29 -15 90 5 47 3 72 -5 82 -14 16 -23 19 -33 8z"/>
<path d="M2964 2927 c-2 -7 -3 -62 -2 -123 2 -89 6 -109 18 -109 12 0 16 17
18 79 3 84 21 126 53 126 22 0 35 18 22 31 -6 6 -20 6 -37 -1 -19 -7 -33 -7
-47 0 -14 8 -21 7 -25 -3z"/>
<path d="M3645 2931 c-7 -13 3 -51 39 -145 33 -86 33 -109 1 -130 -25 -16 -34
-46 -15 -46 6 0 23 6 39 14 27 14 46 45 74 121 8 22 22 58 32 81 21 52 25 109
7 109 -13 0 -41 -71 -56 -137 -4 -16 -13 -28 -21 -28 -16 0 -21 9 -52 104 -19
59 -35 77 -48 57z"/>
<path d="M5262 2928 c-19 -19 -17 -292 3 -308 23 -19 35 -2 35 51 0 53 16 64
46 34 25 -25 61 -18 99 20 31 32 35 42 35 87 0 60 -29 115 -66 124 -29 7 -76
-3 -86 -19 -5 -8 -12 -6 -26 6 -22 20 -24 21 -40 5z m165 -63 c34 -71 -26
-158 -87 -125 -40 21 -52 92 -24 135 13 20 25 25 55 25 35 0 41 -4 56 -35z"/>
<path d="M5962 2931 c-9 -6 -12 -39 -10 -122 2 -93 6 -114 18 -114 12 0 16 19
21 85 6 107 12 120 53 120 49 0 56 -14 56 -111 0 -66 3 -88 14 -92 28 -11 39
20 33 90 -6 85 5 113 48 113 46 0 55 -17 57 -101 2 -88 12 -117 35 -98 24 21
9 197 -19 222 -25 22 -62 22 -98 0 -27 -15 -30 -15 -54 0 -30 20 -55 21 -90 6
-18 -9 -29 -9 -39 -1 -7 6 -18 7 -25 3z"/>
<path d="M6894 2931 c-8 -9 -4 -230 5 -235 5 -4 16 -3 25 0 13 5 16 22 16 88
0 86 10 112 45 118 11 2 21 10 23 19 2 12 -8 15 -53 15 -31 -1 -59 -3 -61 -5z"/>
<path d="M3866 2742 c-11 -18 -10 -105 1 -109 11 -4 33 54 33 88 0 17 -26 33
-34 21z"/>
<path d="M2853 2220 c-133 -33 -242 -100 -323 -197 -64 -77 -99 -158 -116
-270 -12 -83 -12 -106 1 -179 21 -121 64 -205 144 -284 117 -115 256 -167 416
-156 170 11 268 56 373 171 65 71 69 63 47 -82 -36 -240 -108 -366 -243 -429
-69 -32 -204 -34 -269 -5 -46 21 -133 97 -133 115 0 7 -14 25 -31 42 -29 27
-36 29 -129 32 -60 2 -106 -1 -119 -7 -54 -29 4 -168 116 -278 41 -40 79 -73
86 -73 7 0 18 -5 25 -12 17 -17 76 -37 172 -59 93 -22 203 -20 311 6 165 38
309 158 392 326 26 53 47 104 47 114 0 9 5 25 10 36 25 46 50 235 50 375 0
197 -27 336 -93 474 -110 231 -315 360 -567 359 -57 0 -124 -8 -167 -19z m318
-245 c63 -32 142 -123 163 -187 21 -66 21 -161 -1 -222 -23 -63 -101 -145
-169 -177 -70 -33 -217 -33 -288 0 -202 93 -248 359 -91 517 85 85 144 107
269 97 45 -3 86 -13 117 -28z"/>
<path d="M5790 2220 c-200 -55 -354 -211 -435 -440 -74 -213 -76 -586 -2 -800
42 -123 126 -245 215 -313 83 -64 117 -81 232 -114 100 -29 331 -15 406 25 10
5 41 21 68 33 66 32 180 140 219 208 59 102 71 153 71 291 0 126 -12 184 -56
262 -97 172 -269 268 -478 268 -163 0 -292 -52 -391 -158 -49 -52 -60 -60 -66
-46 -9 24 27 255 45 290 5 11 21 45 36 77 33 73 90 135 158 172 48 26 62 29
148 29 118 -1 166 -20 233 -96 25 -29 57 -65 70 -80 19 -21 36 -27 90 -33 75
-8 158 1 169 18 27 42 -32 166 -122 258 -62 63 -81 77 -160 114 -113 54 -321
70 -450 35z m250 -814 c107 -27 169 -77 217 -175 24 -48 28 -67 27 -136 -2
-88 -14 -130 -58 -191 -65 -89 -155 -134 -271 -134 -106 0 -157 21 -231 94
-73 74 -94 125 -94 231 0 123 42 201 143 268 79 52 170 67 267 43z"/>
<path d="M4738 2187 c-88 -53 -295 -200 -355 -253 l-43 -37 0 -96 c0 -95 8
-121 36 -121 11 0 107 63 283 186 70 49 96 63 105 54 8 -8 10 -135 9 -458 -3
-570 6 -879 27 -892 8 -5 60 -10 116 -10 89 0 103 2 120 21 17 19 18 54 19
802 0 619 -3 787 -13 805 -12 21 -18 22 -140 22 -114 0 -131 -3 -164 -23z"/>
<path d="M3965 1947 c-75 -29 -105 -71 -105 -148 0 -101 56 -159 152 -159 79
0 134 44 156 123 20 73 -30 160 -107 186 -41 13 -57 13 -96 -2z"/>
<path d="M3949 1110 c-20 -11 -48 -33 -63 -50 -22 -27 -26 -41 -26 -95 0 -60
2 -66 38 -103 21 -23 54 -45 78 -52 36 -11 46 -10 91 10 72 30 97 69 98 147 0
72 -19 105 -81 140 -47 28 -87 28 -135 3z"/>
</g>
</svg>
